<?xml version="1.0" encoding="UTF-8" standalone="no"?><!DOCTYPE svg PUBLIC "-//W3C//DTD SVG 1.1//EN" "http://www.w3.org/Graphics/SVG/1.1/DTD/svg11.dtd"><svg width="100%" height="100%" viewBox="0 0 471 181" version="1.1" xmlns="http://www.w3.org/2000/svg" xmlns:xlink="http://www.w3.org/1999/xlink" xml:space="preserve" style="fill-rule:evenodd;clip-rule:evenodd;stroke-linejoin:round;stroke-miterlimit:1.41421;"><path d="M22.271,100.036l39.044,0l0,-10.627l-35.289,0l-3.755,10.627Z" style="fill-rule:nonzero;"/><path d="M0.821,139.423l60.494,0l0,-13.497l-55.686,0l-4.808,13.497Z" style="fill-rule:nonzero;"/><path d="M39.865,71.869l-39.045,0l0.001,10.629l35.288,0l3.756,-10.629Z" style="fill-rule:nonzero;"/><path d="M61.315,32.482l-60.494,0l0,13.499l55.685,0l4.809,-13.499Z" style="fill-rule:nonzero;"/><path d="M11.542,119.014l49.773,0l0,-12.066l-45.531,0.005l-4.242,12.061Z" style="fill-rule:nonzero;"/><path d="M50.594,52.892l-49.773,0l0,12.065l45.531,-0.003l4.242,-12.062Z" style="fill-rule:nonzero;"/><path d="M73.568,136.475l0,-83.608l-2.918,0.001l0,86.54l141.533,0l0,-2.933l-138.615,0Z" style="fill-rule:nonzero;"/><path d="M394.799,73.103c0.11,-1.107 0.158,-2.257 0.158,-3.405c0,-20.552 -16.654,-37.203 -37.195,-37.203c-20.566,0 -37.203,16.651 -37.203,37.203c0,20.561 16.638,37.196 37.203,37.196c17.085,0 31.472,-11.511 35.835,-27.206l-14.362,0c-3.783,8.084 -11.986,13.68 -21.473,13.68c-11.922,0 -21.774,-8.805 -23.421,-20.265l60.458,0Zm-37.037,-27.078c9.349,0 17.422,5.475 21.251,13.346l-42.538,0c3.865,-7.871 11.935,-13.346 21.287,-13.346" style="fill-rule:nonzero;"/><path d="M468.506,32.488l-67.488,0.012l0,74.364l13.536,0l0,-60.834l53.951,0l0,-13.542Z" style="fill-rule:nonzero;"/><path d="M256.195,32.496c-8.995,0 -17.267,3.192 -23.694,8.504l0,-8.358l-13.512,0l0,106.782l13.512,0l0,-41.025c6.427,5.307 14.699,8.484 23.694,8.484c20.555,0 37.207,-16.65 37.207,-37.192c0,-20.544 -16.652,-37.195 -37.207,-37.195m0,60.879c-13.064,0 -23.677,-10.593 -23.677,-23.685c0,-13.06 10.613,-23.664 23.677,-23.664c13.081,0 23.69,10.604 23.69,23.664c0,13.092 -10.609,23.685 -23.69,23.685" style="fill-rule:nonzero;"/><path d="M212.36,73.103c0.107,-1.107 0.165,-2.257 0.165,-3.405c0,-20.552 -16.659,-37.203 -37.227,-37.203c-20.531,0 -37.191,16.651 -37.191,37.203c0,20.561 16.66,37.196 37.191,37.196c16.983,0 31.31,-11.346 35.75,-26.894l-14.408,0c-3.831,7.918 -11.94,13.368 -21.342,13.368c-11.914,0 -21.729,-8.805 -23.396,-20.265l60.458,0Zm-37.062,-27.078c9.377,0 17.44,5.475 21.269,13.347l-42.528,0c3.831,-7.872 11.902,-13.347 21.259,-13.347" style="fill-rule:nonzero;"/><path d="M323.01,32.494l-9.875,0l0,-32.494l-13.544,0l0,32.494l-6.964,0l0,13.515l6.964,0l0,60.864l13.544,0l0,-60.864l9.875,0l0,-13.515Z" style="fill-rule:nonzero;"/><path d="M138.385,46.025l0,-0.095l0.057,-0.05l-0.056,-0.03l0,-13.355l-0.064,0l-10.822,0l-56.882,0l0,13.53l50.761,0l-35.673,47.343l0,13.574l0.006,-0.009l52.527,0l0,-13.404l-35.706,0l35.789,-47.504l0.064,0Z" style="fill-rule:nonzero;"/><path d="M465.619,3.006l0,22.594l2.919,0l0,-25.529l-147.684,0l0,2.935l144.765,0Z" style="fill-rule:nonzero;"/><path d="M362.162,123.307l-7.374,16.102l2.169,0l1.847,-4.057l7.426,0l1.846,4.057l2.17,0l-7.376,-16.102l-0.708,0Zm-2.523,10.199l2.877,-6.547l2.877,6.547l-5.754,0Z" style="fill-rule:nonzero;"/><path d="M447.452,123.307l-7.374,16.102l2.169,0l1.846,-4.057l7.427,0l1.847,4.057l2.169,0l-7.376,-16.102l-0.708,0Zm-2.521,10.199l2.876,-6.547l2.876,6.547l-5.752,0Z" style="fill-rule:nonzero;"/><path d="M463.408,137.563l0,-14.256l0,-0.084l-2.018,0l0,16.186l6.933,0l0,-1.846l-4.915,0Z" style="fill-rule:nonzero;"/><path d="M258.105,123.307l0,16.102l2.018,0l0,-16.102l0,-0.084l-2.018,0l0,0.084Z" style="fill-rule:nonzero;"/><path d="M279.613,123.307l0,11.872l-11.331,-11.872l-0.819,0l0,16.102l2.017,0l0,-12.064l11.527,12.076l0.624,0l0,-16.114l0,-0.084l-2.018,0l0,0.084Z" style="fill-rule:nonzero;"/><path d="M287.507,123.307l0,1.763l3.843,0l0,14.339l2.017,0l0,-14.339l3.842,0l0,-1.763l0,-0.084l-9.702,0l0,0.084Z" style="fill-rule:nonzero;"/><path d="M303.302,123.307l0,16.102l8.695,0l0,-1.845l-6.677,0l0,-6.119l6.483,0l0,-1.846l-6.483,0l0,-4.529l6.677,0l0,-1.763l0,-0.084l-8.695,0l0,0.084Z" style="fill-rule:nonzero;"/><path d="M327.836,127.838c0,-1.546 -0.774,-3.07 -2.126,-3.864c-0.695,-0.392 -1.464,-0.577 -2.252,-0.667c-0.672,-0.076 -1.358,-0.084 -2.02,-0.084l-2.447,0l0,16.186l2.017,0l0,-6.848l0.837,0l4.765,6.848l2.449,0l-5.109,-7.042c2.34,-0.278 3.885,-2.21 3.885,-4.529m-6.183,3.049l-0.643,0l0,-5.861l0.536,0c1.998,0 4.402,0.366 4.402,2.899c0,2.575 -2.233,2.962 -4.295,2.962" style="fill-rule:nonzero;"/><path d="M347.108,123.307l0,11.872l-11.331,-11.872l-0.819,0l0,16.102l2.019,0l0,-12.064l11.526,12.076l0.624,0l0,-16.114l0,-0.084l-2.019,0l0,0.084Z" style="fill-rule:nonzero;"/><path d="M372.884,123.307l0,1.763l3.842,0l0,14.339l2.017,0l0,-14.339l3.843,0l0,-1.763l0,-0.084l-9.702,0l0,0.084Z" style="fill-rule:nonzero;"/><path d="M388.615,123.307l0,16.102l2.018,0l0,-16.102l0,-0.084l-2.018,0l0,0.084Z" style="fill-rule:nonzero;"/><path d="M432.399,123.307l0,11.872l-11.331,-11.872l-0.819,0l0,16.102l2.018,0l0,-12.064l11.525,12.076l0.625,0l0,-16.114l0,-0.084l-2.018,0l0,0.084Z" style="fill-rule:nonzero;"/><path d="M408.137,123.307c-0.832,-0.273 -1.714,-0.427 -2.631,-0.427c-0.917,0 -1.798,0.154 -2.63,0.427c-3.374,1.112 -5.85,4.288 -5.85,8.01c0,3.958 2.579,7.11 6.101,8.103c0.756,0.214 1.551,0.332 2.379,0.332c0.828,0 1.624,-0.118 2.381,-0.332c3.521,-0.992 6.1,-4.144 6.1,-8.103c0,-3.722 -2.477,-6.897 -5.85,-8.01m-2.63,14.556c-3.499,0 -6.461,-2.856 -6.461,-6.547c0,-3.565 2.662,-6.548 6.461,-6.548c3.798,0 6.461,2.984 6.461,6.548c0,3.692 -2.962,6.547 -6.461,6.547" style="fill-rule:nonzero;"/><g><path d="M3.419,179.591l-3.419,-0.001l0,-17.533l4.651,0c3.674,0 6.069,1.465 6.069,5.441c0,3.721 -2.023,5.535 -5.604,5.535l-1.697,0l0,6.557Zm0,-9.394l0.697,0c2.024,0 3.116,-0.442 3.116,-2.721c0,-2.255 -1.302,-2.581 -3.209,-2.581l-0.604,0l0,5.302Z" style="fill-rule:nonzero;"/><path d="M28.787,179.591l-4.14,-0.001l-4.255,-7.069l-0.047,0l0,7.069l-3.418,0l0,-17.533l4.627,0c3.465,0 5.86,1.534 5.86,5.278c0,2.233 -1.233,4.465 -3.581,4.86l4.954,7.395Zm-8.442,-9.464l0.442,0c1.884,0 3.209,-0.558 3.209,-2.698c0,-2.163 -1.372,-2.58 -3.186,-2.58l-0.465,0l0,5.278Z" style="fill-rule:nonzero;"/><path d="M37.968,165.034l0,3.859l5.442,0l0,2.977l-5.442,0l0,4.744l5.651,0l0,2.976l-9.069,0l0,-17.533l9.069,0l0,2.977l-5.651,0Z" style="fill-rule:nonzero;"/><path d="M63.638,168.707l-0.047,0l-3.976,11.115l-1.187,0l-3.837,-11.115l-0.046,0l-1.558,10.883l-3.442,0l2.954,-17.999l2.418,0l4.326,11.558l4.139,-11.558l2.465,0l2.627,17.999l-3.441,0l-1.395,-10.883Z" style="fill-rule:nonzero;"/><path d="M78.051,179.591l-3.418,-0.001l0,-17.533l3.418,0l0,17.533Z" style="fill-rule:nonzero;"/><path d="M85.095,162.057l3.418,0l0,9.813c0,2.163 0.186,5.209 3.093,5.209c2.907,0 3.093,-3.047 3.093,-5.209l0,-9.813l3.419,0l0,10.487c0,4.279 -1.814,7.511 -6.512,7.511c-4.698,0 -6.511,-3.232 -6.511,-7.511l0,-10.487Z" style="fill-rule:nonzero;"/><path d="M118.275,168.707l-0.047,0l-3.976,11.115l-1.187,0l-3.837,-11.115l-0.046,0l-1.558,10.883l-3.441,0l2.953,-17.999l2.419,0l4.325,11.558l4.139,-11.558l2.466,0l2.627,17.999l-3.442,0l-1.395,-10.883Z" style="fill-rule:nonzero;"/><path d="M182.582,180.055c-5.349,0 -8.673,-4.092 -8.673,-9.255c0,-5.208 3.441,-9.209 8.673,-9.209c5.232,0 8.674,4.001 8.674,9.209c0,5.163 -3.326,9.255 -8.674,9.255Zm0,-15.092c-3.232,0 -5.139,2.861 -5.139,5.698c0,2.698 1.348,6.022 5.139,6.022c3.791,0 5.139,-3.325 5.139,-6.022c0,-2.837 -1.906,-5.698 -5.139,-5.698Z" style="fill-rule:nonzero;"/><path d="M197.576,161.591l2.465,0l9.232,12.256l0.047,0l0,-11.79l3.419,0l0,17.882l-2.465,0l-9.232,-12.255l-0.047,0l0,11.906l-3.419,0l0,-17.999Z" style="fill-rule:nonzero;"/><path d="M223.292,176.614l4.836,0l0,2.976l-8.255,0l0,-17.533l3.418,0l0,14.557Z" style="fill-rule:nonzero;"/><rect x="233.869" y="162.057" width="3.418" height="17.534" style="fill-rule:nonzero;"/><path d="M244.425,161.591l2.465,0l9.233,12.256l0.046,0l0,-11.79l3.42,0l0,17.882l-2.466,0l-9.232,-12.255l-0.047,0l0,11.906l-3.419,0l0,-17.999Z" style="fill-rule:nonzero;"/><path d="M270.14,165.034l0,3.859l5.442,0l0,2.977l-5.442,0l0,4.744l5.651,0l0,2.976l-9.07,0l0,-17.533l9.07,0l0,2.977l-5.651,0Z" style="fill-rule:nonzero;"/><path d="M336.449,165.917c-0.651,-0.883 -1.488,-1.441 -2.629,-1.441c-1.092,0 -2.139,0.836 -2.139,1.976c0,2.953 6.953,1.721 6.953,7.604c0,3.512 -2.185,6 -5.767,6c-2.418,0 -4.185,-1.395 -5.394,-3.418l2.209,-2.163c0.464,1.349 1.697,2.557 3.163,2.557c1.394,0 2.255,-1.185 2.255,-2.534c0,-1.814 -1.674,-2.326 -3.046,-2.86c-2.256,-0.93 -3.907,-2.07 -3.907,-4.791c0,-2.907 2.163,-5.256 5.116,-5.256c1.557,0 3.72,0.768 4.791,1.954l-1.605,2.372Z" style="fill-rule:nonzero;"/><path d="M354.817,168.963l0,-6.906l3.418,0l0,17.534l-3.418,0l0,-7.837l-6.326,0l0,7.837l-3.418,0l0,-17.534l3.418,0l0,6.906l6.326,0Z" style="fill-rule:nonzero;"/><path d="M373.229,180.055c-5.348,0 -8.673,-4.092 -8.673,-9.255c0,-5.208 3.441,-9.209 8.673,-9.209c5.232,0 8.674,4.001 8.674,9.209c0,5.163 -3.325,9.255 -8.674,9.255Zm0,-15.092c-3.232,0 -5.139,2.861 -5.139,5.698c0,2.698 1.349,6.022 5.139,6.022c3.791,0 5.14,-3.325 5.14,-6.022c-0.001,-2.837 -1.907,-5.698 -5.14,-5.698Z" style="fill-rule:nonzero;"/><path d="M391.643,179.591l-3.419,-0.001l0,-17.533l4.651,0c3.673,0 6.069,1.465 6.069,5.441c0,3.721 -2.023,5.535 -5.605,5.535l-1.697,0l0,6.557l0,0Zm0,-9.394l0.698,0c2.023,0 3.116,-0.442 3.116,-2.721c0,-2.255 -1.302,-2.581 -3.209,-2.581l-0.605,0l0.001,5.302Z" style="fill-rule:nonzero;"/><path d="M408.569,179.591l-3.418,-0.001l0,-17.533l4.651,0c3.673,0 6.068,1.465 6.068,5.441c0,3.721 -2.022,5.535 -5.604,5.535l-1.697,0l0,6.557l0,0Zm0,-9.394l0.698,0c2.023,0 3.116,-0.442 3.116,-2.721c0,-2.255 -1.302,-2.581 -3.209,-2.581l-0.605,0l0,5.302Z" style="fill-rule:nonzero;"/><rect x="422.077" y="162.057" width="3.418" height="17.534" style="fill-rule:nonzero;"/><path d="M432.633,161.591l2.464,0l9.233,12.256l0.046,0l0,-11.79l3.419,0l0,17.882l-2.464,0l-9.233,-12.255l-0.046,0l0,11.906l-3.419,0l0,-17.999Z" style="fill-rule:nonzero;"/><path d="M470.416,170.265l0,0.442c0,4.953 -2.535,9.348 -7.976,9.348c-5.116,0 -8.349,-4.326 -8.349,-9.162c0,-5 3.326,-9.302 8.558,-9.302c2.977,0 5.581,1.512 6.929,4.187l-3.022,1.627c-0.699,-1.581 -2.187,-2.791 -4.001,-2.791c-3.301,0 -4.929,3.372 -4.929,6.279c0,2.907 1.651,6.139 4.953,6.139c2.14,0 3.93,-1.86 4,-3.976l-3.721,0l0,-2.791l7.558,0Z" style="fill-rule:nonzero;"/></g></svg>